<svg id="119" viewBox="0 0 141 28" xmlns="http://www.w3.org/2000/svg" xmlns:xlink="http://www.w3.org/1999/xlink"><g transform="matrix(1,0,0,1,0,0)"><g id="119" opacity="1" style="mix-blend-mode:normal"><g><g><g transform="matrix(1,0,0,1,63,8)"><g id="14" opacity="1" style="mix-blend-mode:normal"><g><g><path id="14_fill_path" d="M8.31275,11.96298h-8.31275v-11.96298h1.84322v10.39046h6.46953zM8.31275,11.96298h-8.31275v-11.96298h1.84322v10.39046h6.46953zM8.31275,11.96298h-8.31275v-11.96298h1.84322v10.39046h6.46953zM8.31275,11.96298h-8.31275v-11.96298h1.84322v10.39046h6.46953z" fill-rule="nonzero" fill="rgb(255, 255, 255)" fill-opacity="1" style="mix-blend-mode:NORMAL"></path></g></g></g></g><g transform="matrix(1,0,0,1,23,8)"><g id="15" opacity="0" style="mix-blend-mode:normal"><g><g><path id="15_fill_path" d="M0,11.96298h8.22262v-1.57253h-6.3794v-3.65735h5.56626v-1.57162h-5.56626v-3.58898h6.10807v-1.5725h-7.95129z" fill-rule="nonzero" fill="rgb(255, 255, 255)" fill-opacity="1" style="mix-blend-mode:NORMAL"></path></g></g></g></g><g transform="matrix(1,0,0,1,34,8)"><g id="16" opacity="0" style="mix-blend-mode:normal"><g><g><path id="16_fill_path" d="M0,11.96298h3.93997c3.45166,0 4.73527,-2.47821 4.73527,-5.98105c0,-3.55523 -1.37374,-5.98193 -4.77097,-5.98193h-3.90427zM1.80753,1.5725v8.81796h1.96999c1.86107,0 2.87326,-0.44397 2.87326,-2.83691v-3.14413c0,-2.39294 -1.01219,-2.83691 -2.87326,-2.83691z" fill-rule="evenodd" fill="rgb(255, 255, 255)" fill-opacity="1" style="mix-blend-mode:NORMAL"></path></g></g></g></g><g transform="matrix(1,0,0,1,44,8)"><g id="17" opacity="0" style="mix-blend-mode:normal"><g><g><path id="17_fill_path" d="M4.4996,12.30571c1.08452,0 2.0789,-0.4102 2.58501,-1.299h0.25259v1.12766h1.66292v-6.16931h-4.89772v1.57253h3.16248v0.81953c0,1.72612 -0.66853,2.29088 -2.3493,2.29088h-0.3972c-1.6817,0 -2.49488,-0.51325 -2.49488,-2.88843v-3.21338c0,-2.39206 0.81318,-2.88842 2.49488,-2.88842h0.36058c1.64507,0 2.20566,0.58159 2.2235,2.18784h1.98779c-0.18027,-2.35834 -1.87982,-3.84561 -4.37376,-3.84561c-1.21034,0 -2.20473,0.34185 -2.96339,1.02555c-1.13899,1.00871 -1.75309,2.73483 -1.75309,5.12777c0,2.30683 0.59626,4.01606 1.71647,5.07536c0.75964,0.70054 1.75305,1.07703 2.78313,1.07703z" fill-rule="nonzero" fill="rgb(255, 255, 255)" fill-opacity="1" style="mix-blend-mode:NORMAL"></path></g></g></g></g><g transform="matrix(1,0,0,1,55,8)"><g id="18" opacity="0" style="mix-blend-mode:normal"><g><g><path id="18_fill_path" d="M0,11.96298h8.22261v-1.57253h-6.37939v-3.65735h5.56625v-1.57162h-5.56625v-3.58898h6.10895v-1.5725h-7.95216z" fill-rule="nonzero" fill="rgb(255, 255, 255)" fill-opacity="1" style="mix-blend-mode:NORMAL"></path></g></g></g></g><g transform="matrix(1,0,0,1,66,8)"><g id="19" opacity="0" style="mix-blend-mode:normal"><g><g><path id="19_fill_path" d="M6.46957,9.10921v2.85378h1.84323v-2.58032c0,-1.87971 -0.4695,-2.59804 -1.91556,-2.80318v-0.23883c1.3193,-0.32501 2.24136,-1.48729 2.24136,-2.87152c0,-0.87108 -0.3615,-1.65777 -1.04788,-2.28999c-0.86762,-0.78581 -2.02448,-1.17914 -3.52493,-1.17914h-4.0658v11.96298h1.80659v-4.76816h2.71085c1.39252,0 1.95213,0.54695 1.95213,1.91438zM1.80659,1.5725v4.04983h2.89204c1.42728,0 1.91556,-0.42709 1.91556,-1.67465v-0.71741c0,-1.21381 -0.50613,-1.65777 -1.91556,-1.65777z" fill-rule="evenodd" fill="rgb(255, 255, 255)" fill-opacity="1" style="mix-blend-mode:NORMAL"></path></g></g></g></g><g transform="matrix(1,0,0,1,78,13)"><g id="110" opacity="0" style="mix-blend-mode:normal"><g><g><path id="110_fill_path" d="M0,1.57253h6.5062v-1.57253h-6.5062z" fill-rule="nonzero" fill="rgb(255, 255, 255)" fill-opacity="1" style="mix-blend-mode:NORMAL"></path></g></g></g></g><g transform="matrix(1,0,0,1,89,8)"><g id="111" opacity="0" style="mix-blend-mode:normal"><g><g><path id="111_fill_path" d="M0,11.96298h8.31366v-1.57253h-6.46951v-10.39046h-1.84415z" fill-rule="nonzero" fill="rgb(255, 255, 255)" fill-opacity="1" style="mix-blend-mode:NORMAL"></path></g></g></g></g><g transform="matrix(1,0,0,1,110,8)"><g id="113" opacity="0" style="mix-blend-mode:normal"><g><g><path id="113_fill_path" d="M3.54184,11.96298h2.56717l3.65077,-11.96298h-1.87985l-2.9099,10.01488h-0.25256l-2.78412,-10.01488h-1.93335z" fill-rule="nonzero" fill="rgb(255, 255, 255)" fill-opacity="1" style="mix-blend-mode:NORMAL"></path></g></g></g></g><g transform="matrix(1,0,0,1,122,8)"><g id="114" opacity="0" style="mix-blend-mode:normal"><g><g><path id="114_fill_path" d="M8.22355,11.96298h-8.22355v-11.96298h7.95222v1.5725h-6.10899v3.58898h5.56626v1.57162h-5.56626v3.65735h6.38032z" fill-rule="nonzero" fill="rgb(255, 255, 255)" fill-opacity="1" style="mix-blend-mode:NORMAL"></path></g></g></g></g><g transform="matrix(1,0,0,1,71,0)"><g id="115" opacity="1" style="mix-blend-mode:normal"><g><g><path id="115_fill_path" d="M0,1.743v-1.743h12.65179v7.86168h-1.84317v-6.11868zM12.65179,27.68631h-12.65179v-1.74297h10.80862v-6.11868h1.84317z" fill-rule="nonzero" fill="rgb(255, 255, 255)" fill-opacity="1" style="mix-blend-mode:NORMAL"></path></g></g></g></g><g transform="matrix(1,0,0,1,100,8)"><g id="112" opacity="0" style="mix-blend-mode:normal"><g><g><path id="112_fill_path" d="M0,11.96298h7.95217v-1.53789h-3.05447v-8.88723h3.05447v-1.53786h-7.95217v1.53786h3.0545v8.88723h-3.0545z" fill-rule="nonzero" fill="rgb(255, 255, 255)" fill-opacity="1" style="mix-blend-mode:NORMAL"></path></g></g></g></g><g transform="matrix(1,0,0,1,50,0)"><g id="520" opacity="1" style="mix-blend-mode:normal"><g><g><path id="520_fill_path" d="M12.65086,0h-12.65086v7.86168h1.84322v-6.11868h10.80764zM0,27.68631h12.65086v-1.74297h-10.80764v-6.11868h-1.84322z" fill-rule="nonzero" fill="rgb(255, 255, 255)" fill-opacity="1" style="mix-blend-mode:NORMAL"></path></g></g></g></g></g></g></g></g><animateTransform href="#14" attributeName="transform" type="translate" values="0 0;-50 0;-50 0" dur="3s" repeatCount="indefinite" calcMode="spline" keyTimes="0;0.27;1" keySplines="0.5 0.35 0.15 1;0.5 0.35 0.15 1" additive="sum" fill="freeze"></animateTransform><animate href="#15" attributeName="opacity" values="0;0;1;1" dur="3s" repeatCount="indefinite" calcMode="spline" keyTimes="0;0.12;0.27;1" keySplines="0.5 0.35 0.15 1;0.5 0.35 0.15 1;0.5 0.35 0.15 1" additive="sum" fill="freeze"></animate><animate href="#16" attributeName="opacity" values="0;0;1;1" dur="3s" repeatCount="indefinite" calcMode="spline" keyTimes="0;0.1;0.27;1" keySplines="0.5 0.35 0.15 1;0.5 0.35 0.15 1;0.5 0.35 0.15 1" additive="sum" fill="freeze"></animate><animate href="#17" attributeName="opacity" values="0;0;1;1" dur="3s" repeatCount="indefinite" calcMode="spline" keyTimes="0;0.09;0.27;1" keySplines="0.5 0.35 0.15 1;0.5 0.35 0.15 1;0.5 0.35 0.15 1" additive="sum" fill="freeze"></animate><animate href="#18" attributeName="opacity" values="0;0;1;1" dur="3s" repeatCount="indefinite" calcMode="spline" keyTimes="0;0.06;0.27;1" keySplines="0.5 0.35 0.15 1;0.5 0.35 0.15 1;0.5 0.35 0.15 1" additive="sum" fill="freeze"></animate><animate href="#19" attributeName="opacity" values="0;0;1;1" dur="3s" repeatCount="indefinite" calcMode="spline" keyTimes="0;0.03;0.27;1" keySplines="0.5 0.35 0.15 1;0.5 0.35 0.15 1;0.5 0.35 0.15 1" additive="sum" fill="freeze"></animate><animate href="#110" attributeName="opacity" values="0;0;1;1" dur="3s" repeatCount="indefinite" calcMode="spline" keyTimes="0;0.03;0.27;1" keySplines="0.5 0.35 0.15 1;0.5 0.35 0.15 1;0.5 0.35 0.15 1" additive="sum" fill="freeze"></animate><animate href="#111" attributeName="opacity" values="0;0;1;1" dur="3s" repeatCount="indefinite" calcMode="spline" keyTimes="0;0.06;0.27;1" keySplines="0.5 0.35 0.15 1;0.5 0.35 0.15 1;0.5 0.35 0.15 1" additive="sum" fill="freeze"></animate><animate href="#113" attributeName="opacity" values="0;0;1;1" dur="3s" repeatCount="indefinite" calcMode="spline" keyTimes="0;0.1;0.27;1" keySplines="0.5 0.35 0.15 1;0.5 0.35 0.15 1;0.5 0.35 0.15 1" additive="sum" fill="freeze"></animate><animate href="#114" attributeName="opacity" values="0;0;1;1" dur="3s" repeatCount="indefinite" calcMode="spline" keyTimes="0;0.13;0.27;1" keySplines="0.5 0.35 0.15 1;0.5 0.35 0.15 1;0.5 0.35 0.15 1" additive="sum" fill="freeze"></animate><animateTransform href="#115" attributeName="transform" type="translate" values="0 0;57 0;57 0" dur="3s" repeatCount="indefinite" calcMode="spline" keyTimes="0;0.27;1" keySplines="0.5 0.35 0.15 1;0.5 0.35 0.15 1" additive="sum" fill="freeze"></animateTransform><animate href="#112" attributeName="opacity" values="0;0;1;1" dur="3s" repeatCount="indefinite" calcMode="spline" keyTimes="0;0.08;0.27;1" keySplines="0.5 0.35 0.15 1;0.5 0.35 0.15 1;0.5 0.35 0.15 1" additive="sum" fill="freeze"></animate><animateTransform href="#520" attributeName="transform" type="translate" values="0 0;-50 0;-50 0" dur="3s" repeatCount="indefinite" calcMode="spline" keyTimes="0;0.27;1" keySplines="0.5 0.35 0.15 1;0.5 0.35 0.15 1" additive="sum" fill="freeze"></animateTransform></svg>