
<svg width="141" height="28" viewBox="0 0 141 28" fill="none" xmlns="http://www.w3.org/2000/svg">
<g clip-path="url(#clip0_50_430)">
<path d="M12.6509 0.152588H0V8.01427H1.84322V1.89559H12.6509V0.152588ZM0 27.8389H12.6509V26.0959H1.84322V19.9772H0V27.8389ZM12.5607 19.9772H20.8735V18.4047H14.4039V8.01427H12.5607V19.9772ZM23.2238 19.9772H31.4464V18.4047H25.067V14.7474H30.6332V13.1758H25.067V9.58676H31.175V8.01427H23.2238V19.9772ZM33.7957 19.9772H37.7357C41.1873 19.9772 42.4709 17.499 42.4709 13.9962C42.4709 10.441 41.0972 8.01427 37.7 8.01427H33.7957V19.9772ZM35.6032 18.4047V9.58676H37.5732C39.4343 9.58676 40.4465 10.0307 40.4465 12.4237V15.5678C40.4465 17.9608 39.4343 18.4047 37.5732 18.4047H35.6032ZM48.7781 20.1486C49.8626 20.1486 50.857 19.7384 51.3631 18.8496H51.6157V19.9772H53.2786V13.8079H48.3809V15.3805H51.5433V16.2C51.5433 17.9261 50.8748 18.4909 49.194 18.4909H48.7968C47.1151 18.4909 46.302 17.9776 46.302 15.6025V12.3891C46.302 9.99701 47.1151 9.50065 48.7968 9.50065H49.1574C50.8025 9.50065 51.3631 10.0822 51.3809 11.6885H53.3687C53.1884 9.33015 51.4889 7.84288 48.995 7.84288C47.7846 7.84288 46.7902 8.18473 46.0316 8.86843C44.8926 9.87714 44.2785 11.6033 44.2785 13.9962C44.2785 16.303 44.8747 18.0123 45.9949 19.0716C46.7546 19.7721 47.748 20.1486 48.7781 20.1486ZM55.7547 19.9772H63.9773V18.4047H57.5979V14.7474H63.1642V13.1758H57.5979V9.58676H63.7069V8.01427H55.7547V19.9772ZM72.8873 17.1235V19.9772H74.7305V17.3969C74.7305 15.5172 74.261 14.7989 72.815 14.5937V14.3549C74.1343 14.0299 75.0563 12.8676 75.0563 11.4834C75.0563 10.6123 74.6948 9.82562 74.0084 9.1934C73.1408 8.40759 71.984 8.01427 70.4835 8.01427H66.4177V19.9772H68.2243V15.2091H70.9351C72.3277 15.2091 72.8873 15.756 72.8873 17.1235ZM68.2243 13.6366V9.58676H71.1163C72.5258 9.58676 73.0319 10.0307 73.0319 11.2445V11.9619C73.0319 13.2095 72.5436 13.6366 71.1163 13.6366H68.2243ZM78.0742 16.4229H84.5804V14.8504H78.0742V16.4229ZM88.4659 19.9772H96.7796V18.4047H90.31V8.01427H88.4659V19.9772ZM99.0388 19.9772H106.991V18.4394H103.936V9.55213H106.991V8.01427H99.0388V9.55213H102.093V18.4394H99.0388V19.9772ZM112.521 19.9772H115.088L118.739 8.01427H116.859L113.949 18.0292H113.696L110.912 8.01427H108.979L112.521 19.9772ZM120.816 19.9772H129.04V18.4047H122.66V14.7474H128.226V13.1758H122.66V9.58676H128.769V8.01427H120.816V19.9772ZM128.316 0.152588V1.89559H139.125V8.01427H140.968V0.152588H128.316ZM128.316 27.8389H140.968V19.9772H139.125V26.0959H128.316V27.8389Z" fill="black"/>
</g>
<defs>
<clipPath id="clip0_50_430">
<rect width="141" height="28" fill="white"/>
</clipPath>
</defs>
</svg>
