
<svg width="141" height="28" viewBox="0 0 141 28" fill="none" xmlns="http://www.w3.org/2000/svg">
<g clip-path="url(#clip0_41_13)">
<path d="M12.6509 0.15271H0V8.01439H1.84322V1.89571H12.6509V0.15271ZM0 27.839H12.6509V26.0961H1.84322V19.9774H0V27.839ZM12.5607 19.9774H20.8735V18.4048H14.4039V8.01439H12.5607V19.9774ZM23.2238 19.9774H31.4464V18.4048H25.067V14.7475H30.6332V13.1759H25.067V9.58689H31.175V8.01439H23.2238V19.9774ZM33.7957 19.9774H37.7357C41.1873 19.9774 42.4709 17.4992 42.4709 13.9963C42.4709 10.4411 41.0972 8.01439 37.7 8.01439H33.7957V19.9774ZM35.6032 18.4048V9.58689H37.5732C39.4343 9.58689 40.4465 10.0308 40.4465 12.4238V15.5679C40.4465 17.9609 39.4343 18.4048 37.5732 18.4048H35.6032ZM48.7781 20.1487C49.8626 20.1487 50.857 19.7385 51.3631 18.8497H51.6157V19.9774H53.2786V13.8081H48.3809V15.3806H51.5433V16.2001C51.5433 17.9262 50.8748 18.491 49.194 18.491H48.7968C47.1151 18.491 46.302 17.9778 46.302 15.6026V12.3892C46.302 9.99713 47.1151 9.50077 48.7968 9.50077H49.1574C50.8025 9.50077 51.3631 10.0824 51.3809 11.6886H53.3687C53.1884 9.33027 51.4889 7.843 48.995 7.843C47.7846 7.843 46.7902 8.18485 46.0316 8.86855C44.8926 9.87726 44.2785 11.6034 44.2785 13.9963C44.2785 16.3032 44.8747 18.0124 45.9949 19.0717C46.7546 19.7722 47.748 20.1487 48.7781 20.1487ZM55.7547 19.9774H63.9773V18.4048H57.5979V14.7475H63.1642V13.1759H57.5979V9.58689H63.7069V8.01439H55.7547V19.9774ZM72.8873 17.1236V19.9774H74.7305V17.3971C74.7305 15.5173 74.261 14.799 72.815 14.5939V14.355C74.1343 14.03 75.0563 12.8677 75.0563 11.4835C75.0563 10.6124 74.6948 9.82574 74.0084 9.19352C73.1408 8.40771 71.984 8.01439 70.4835 8.01439H66.4177V19.9774H68.2243V15.2092H70.9351C72.3277 15.2092 72.8873 15.7562 72.8873 17.1236ZM68.2243 13.6367V9.58689H71.1163C72.5258 9.58689 73.0319 10.0308 73.0319 11.2447V11.9621C73.0319 13.2096 72.5436 13.6367 71.1163 13.6367H68.2243ZM78.0742 16.423H84.5804V14.8505H78.0742V16.423ZM88.4659 19.9774H96.7796V18.4048H90.31V8.01439H88.4659V19.9774ZM99.0388 19.9774H106.991V18.4395H103.936V9.55225H106.991V8.01439H99.0388V9.55225H102.093V18.4395H99.0388V19.9774ZM112.521 19.9774H115.088L118.739 8.01439H116.859L113.949 18.0293H113.696L110.912 8.01439H108.979L112.521 19.9774ZM120.816 19.9774H129.04V18.4048H122.66V14.7475H128.226V13.1759H122.66V9.58689H128.769V8.01439H120.816V19.9774ZM128.316 0.15271V1.89571H139.125V8.01439H140.968V0.15271H128.316ZM128.316 27.839H140.968V19.9774H139.125V26.0961H128.316V27.839Z" fill="white"/>
</g>
<defs>
<clipPath id="clip0_41_13">
<rect width="141" height="28" fill="white"/>
</clipPath>
</defs>
</svg>
