
<svg width="104" height="35" viewBox="0 0 104 35" fill="none" xmlns="http://www.w3.org/2000/svg">
<path d="M88.9648 32.796V34.9995H104V25.0619H101.809V32.796H88.9648ZM88.9648 0V2.20348H101.809V9.93815H104V0H88.9648ZM81.2113 17.0464V11.9262H84.648C86.3235 11.9262 86.9249 12.4878 86.9249 14.022V14.9292C86.9249 16.5062 86.3448 17.0464 84.648 17.0464H81.2113ZM86.6666 17.9536C88.2345 17.5431 89.3298 16.0738 89.3298 14.3242C89.3298 13.2225 88.9004 12.2284 88.0842 11.4289C87.0534 10.4349 85.6783 9.93815 83.8958 9.93815H79.0632V25.0613H81.2113V19.0339H84.4333C86.087 19.0339 86.7529 19.7252 86.7529 21.4539V25.0619H88.9435V21.7995C88.9435 19.4229 88.3852 18.5157 86.6666 18.2564V17.9536ZM68.582 18.4504H75.1976V16.4628H68.582V11.9257H75.8417V9.93815H66.3908V25.0613H76.164V23.0738H68.582V18.4504ZM61.3862 19.2499V20.2868C61.3862 22.4688 60.5913 23.182 58.5941 23.182H58.1215C56.1237 23.182 55.1573 22.5337 55.1573 19.5307V15.4688C55.1573 12.4444 56.1669 11.8174 58.1641 11.8174H58.5935C60.5482 11.8174 61.171 12.5521 61.1923 14.583H63.555C63.3403 11.6015 61.3644 9.72219 58.4002 9.72219C56.9612 9.72219 55.7583 10.1761 54.8563 11.0399C53.5032 12.3147 52.7514 14.4753 52.7514 17.4997C52.7514 20.4165 53.3961 22.5771 54.7274 23.9162C55.6293 24.802 56.8754 25.2773 58.0997 25.2773C59.3884 25.2773 60.57 24.7586 61.171 23.6354H61.4714V25.0613H63.4474V17.2623H57.6266V19.2499H61.3862ZM42.4423 11.9257H44.7837C46.9962 11.9257 48.1991 12.4873 48.1991 15.5122V19.4873C48.1991 22.5117 46.9962 23.0738 44.7837 23.0738H42.4423V11.9257ZM44.9765 25.0619C49.0792 25.0619 50.6039 21.9292 50.6039 17.5003C50.6039 13.0065 48.9716 9.93867 44.9334 9.93867H40.2937V25.0619H44.9765ZM29.9201 18.4504H36.5357V16.4628H29.9201V11.9257H37.1798V9.93815H27.7289V25.0613H37.5021V23.0738H29.9201V18.4504ZM17.2476 9.93815H15.057V25.0613H24.9373V23.0738H17.2476V9.93815ZM0 25.0619V35H15.0352V32.796H2.19066V25.0619H0ZM0 0V9.93815H2.19066V2.20348H15.0352V0L0 0Z" fill="white"/>
</svg>
